{"title":"Batman.Begins.2005.SWESUB.DVDRip.XviD.AC3.(5.1).-Zen_Bud","uid":5608561,"size":1473344514,"categoryP":"video","categoryS":"movies","magnet":"?xt=urn:btih:3bb333e68035039dfdbf49205808cd8185e6e24f&amp;dn=Batman.Begins.2005.SWESUB.DVDRip.XviD.AC3.%285.1%29.-Zen_Bud&amp;tr=udp%3A%2F%2Ftracker.openbittorrent.com%3A80&amp;tr=udp%3A%2F%2Fopen.demonii.com%3A1337&amp;tr=udp%3A%2F%2Ftracker.coppersurfer.tk%3A6969&amp;tr=udp%3A%2F%2Fexodus.desync.com%3A6969","seeders":6,"leechers":0,"uploader":"Zen_Bud","files":1,"time":1275720615,"description":"General\nComplete name                    : Batman.Begins.avi\nFormat                           : AVI\nFile size                        : 1.37 GiB\nDuration                         : 2h 20mn\nOverall bit rate                 : 1 403 Kbps\n\nVideo\nID                               : 0\nFormat                           : MPEG-4 Visual\nCodec ID/Hint                    : XviD\nDuration                         : 2h 20mn\nBit rate                         : 944 Kbps\nWidth                            : 720 pixels\nHeight                           : 488 pixels\nDisplay aspect ratio             : 2.098\nChroma subsampling               : 4:2:0\nBit depth                        : 8 bits\nScan type                        : Progressive\nBits/(Pixel*Frame)               : 0.107\nStream size                      : 945 MiB (67%)\nWriting library                  : XviD 1.1.2 (UTC 2006-11-01)\n\nAudio\nID                               : 1\nFormat                           : AC-3\nDuration                         : 2h 20mn\nBit rate                         : 448 Kbps\nChannel(s)                       : 6 channels\nChannel positions                : Front: L C R, Side: L R, LFE\nSampling rate                    : 48.0 KHz\nStream size                      : 449 MiB (32%)\n\n\n","torrent":{"xt":"urn:btih:3bb333e68035039dfdbf49205808cd8185e6e24f","amp;dn":"Batman.Begins.2005.SWESUB.DVDRip.XviD.AC3.%285.1%29.-Zen_Bud","amp;tr":["udp%3A%2F%2Ftracker.openbittorrent.com%3A80","udp%3A%2F%2Fopen.demonii.com%3A1337","udp%3A%2F%2Ftracker.coppersurfer.tk%3A6969","udp%3A%2F%2Fexodus.desync.com%3A6969"],"infoHash":"3bb333e68035039dfdbf49205808cd8185e6e24f","infoHashBuffer":{"type":"Buffer","data":[59,179,51,230,128,53,3,157,253,191,73,32,88,8,205,129,133,230,226,79]},"announce":[],"urlList":[]}}